<?xml version="1.0" encoding="UTF-8"?>
<svg width="52px" height="57px" viewBox="0 0 52 57" version="1.1" xmlns="http://www.w3.org/2000/svg" xmlns:xlink="http://www.w3.org/1999/xlink">
    <title>Logo/L2L</title>
    <g id="Module-Designs" stroke="none" stroke-width="1" fill="none" fill-rule="evenodd">
        <g id="Main-Nav-Dropdown" transform="translate(-203, -19)" fill="#FFFFFF">
            <g id="Group-9" transform="translate(203, 19)">
                <g id="Logo/L2L" transform="translate(-0, 0)">
                    <path d="M3.96122641,52.1793054 L3.96122641,32.2333054 C3.96122641,32.1703054 3.91022641,32.1193054 3.84722641,32.1193054 L0.254226414,32.1193054 C0.191226414,32.1193054 0.140226414,32.1703054 0.140226414,32.2333054 L0.140226414,56.0003054 C0.140226414,56.0623054 0.191226414,56.1133054 0.254226414,56.1133054 L3.23522641,56.1133054 L3.96122641,56.1133054 L14.6942264,56.1133054 C14.7572264,56.1133054 14.8082264,56.0623054 14.8082264,56.0003054 L14.8082264,52.4063054 C14.8082264,52.3433054 14.7572264,52.2933054 14.6942264,52.2933054 L4.07522641,52.2933054 C4.01222641,52.2933054 3.96122641,52.2423054 3.96122641,52.1793054" id="Fill-7"></path>
                    <path d="M40.8506264,52.1793054 L40.8506264,32.2333054 C40.8506264,32.1703054 40.7996264,32.1193054 40.7366264,32.1193054 L37.1436264,32.1193054 C37.0806264,32.1193054 37.0296264,32.1703054 37.0296264,32.2333054 L37.0296264,56.0003054 C37.0296264,56.0623054 37.0806264,56.1133054 37.1436264,56.1133054 L40.1246264,56.1133054 L40.8506264,56.1133054 L51.5836264,56.1133054 C51.6466264,56.1133054 51.6976264,56.0623054 51.6976264,56.0003054 L51.6976264,52.4063054 C51.6976264,52.3433054 51.6466264,52.2933054 51.5836264,52.2933054 L40.9646264,52.2933054 C40.9016264,52.2933054 40.8506264,52.2423054 40.8506264,52.1793054" id="Fill-9"></path>
                    <path d="M17.3027264,56.1601139 C16.9417264,56.1621054 16.6847264,55.8111054 16.7937264,55.4681054 L17.3137264,53.8331054 C18.5017264,50.0981054 21.4617264,48.0501054 24.0737264,46.2421054 C26.3577264,44.6611054 28.5147264,43.1681054 29.3527264,40.7411054 C29.9647264,38.9681054 29.2417264,36.8021054 27.7077264,35.8101054 C26.5637264,35.0701054 25.1527264,35.0181054 23.8337264,35.6661054 C22.3917264,36.3761054 21.4187264,37.7421054 21.2937264,39.2331054 L21.2577264,39.6211054 C21.2247264,39.9641054 21.1757264,40.4601054 21.1637264,40.8261054 C21.1597264,40.9171054 21.0867264,40.9881054 20.9957264,40.9881054 L17.7747264,40.9881054 C17.6797264,40.9881054 17.6027264,40.9141054 17.6047264,40.8191054 C17.6157264,40.3111054 17.6737264,39.7191054 17.7167264,39.2741054 L17.7487264,38.9361054 C17.9757264,36.2081054 19.7057264,33.7311054 22.2647264,32.4741054 C24.6957264,31.2791054 27.4527264,31.4091054 29.6387264,32.8221054 C32.5337264,34.6941054 33.8567264,38.5981054 32.7157264,41.9021054 C31.4967264,45.4301054 28.6287264,47.4151054 26.0987264,49.1671054 C24.5537264,50.2371054 23.0647264,51.2671054 21.9917264,52.5791054 L32.9717264,52.5251054 C33.0647264,52.5241054 33.1407264,52.5991054 33.1407264,52.6921054 L33.1567363,55.9131054 C33.1577264,56.0061054 33.0827264,56.0821054 32.9897264,56.0821054 L17.3027264,56.1601139 Z" id="Fill-11"></path>
                    <path d="M0.104726414,26.5365054 L51.1867264,26.5365054 C51.3817264,26.5365054 51.5397264,26.3785054 51.5397264,26.1835054 L51.5397264,0.31350544 C51.5397264,-0.00349455996 51.1217264,-0.12049456 50.9627264,0.15350544 C48.3077264,4.72050544 35.8347264,22.4115054 0.0957264143,26.3265054 C-0.0372735857,26.3405054 -0.0292735857,26.5365054 0.104726414,26.5365054" id="Fill-13"></path>
                </g>
            </g>
        </g>
    </g>
</svg>